<svg width="150" height="225" viewBox="0 0 150 225" fill="none" xmlns="http://www.w3.org/2000/svg">
<rect width="150" height="225" rx="13" fill="white"/>
<path d="M16.501 21.229H11.977V16.51C11.288 16.692 10.209 16.679 9.52 16.51V27.079H11.977V21.944H16.501V27.079H18.958V16.51C18.269 16.692 17.19 16.679 16.501 16.51V21.229ZM26.3243 16.51C25.5443 16.666 24.5303 16.666 23.7503 16.51L19.9283 27.079H20.9553L22.0083 24.154H26.5063L27.4553 27.079H30.0293L26.3243 16.51ZM24.3743 17.602L26.2723 23.452H22.2553L24.3743 17.602ZM33.6038 22.152V17.355H34.6568C36.1648 17.355 37.6338 17.407 37.6338 19.669C37.6338 21.944 36.1518 22.152 34.6828 22.152H33.6038ZM36.2168 16.51C35.5668 16.51 34.6568 16.64 33.8898 16.64H33.4478C32.6288 16.64 31.9138 16.601 31.1338 16.51V27.079H33.6038V22.867H36.1128C38.4138 22.867 40.1038 21.775 40.1038 19.682C40.1038 17.55 38.4138 16.51 36.2168 16.51ZM43.6966 22.152V17.355H44.7496C46.2576 17.355 47.7266 17.407 47.7266 19.669C47.7266 21.944 46.2446 22.152 44.7756 22.152H43.6966ZM46.3096 16.51C45.6596 16.51 44.7496 16.64 43.9826 16.64H43.5406C42.7216 16.64 42.0066 16.601 41.2266 16.51V27.079H43.6966V22.867H46.2056C48.5066 22.867 50.1966 21.775 50.1966 19.682C50.1966 17.55 48.5066 16.51 46.3096 16.51ZM50.7864 16.51L54.4394 23.348V27.079H56.9094V23.218L60.2504 16.51C59.9384 16.588 59.6264 16.588 59.2884 16.51L56.4934 22.191L53.4774 16.51C52.8014 16.64 51.6054 16.64 50.7864 16.51ZM16.293 39.414C16.293 40.753 15.799 41.533 14.213 41.533C12.627 41.533 12.068 40.766 12.068 39.427V31.523C11.379 31.705 10.313 31.692 9.624 31.523V38.127C9.624 41.013 11.483 42.248 14.213 42.248C16.969 42.248 18.763 41.013 18.763 38.114V31.523C18.074 31.705 16.982 31.692 16.293 31.523V39.414ZM28.3282 42.079V31.51C28.0682 31.575 27.7302 31.575 27.4702 31.51V40.636L22.9982 31.51C22.2572 31.692 20.9312 31.692 20.1902 31.51V42.079H21.0482V32.706L25.5332 42.079H28.3282ZM29.5514 36.268V37.828H36.9354V36.268H29.5514ZM40.6249 37.1H42.3539C43.5499 37.1 44.7329 37.503 44.7329 39.167C44.7329 41.169 43.8099 41.364 42.3539 41.364H40.6249V37.1ZM40.6249 36.398V32.355H41.2099C42.9649 32.355 44.3429 32.238 44.3429 34.318C44.3429 36.216 42.9519 36.398 41.2359 36.398H40.6249ZM44.9799 36.71C45.9289 36.476 46.8259 35.878 46.8259 34.331C46.8259 32.277 44.9539 31.51 42.7569 31.51C42.1069 31.51 41.5479 31.64 40.7679 31.64H40.3909C39.5589 31.64 38.9349 31.601 38.1549 31.51V42.079H42.3799C45.2919 42.079 47.2029 41.416 47.2029 39.154C47.2029 37.919 46.3709 36.905 44.9799 36.71ZM48.6074 42.079H51.0644V31.497C50.3754 31.679 49.2964 31.666 48.6074 31.497V42.079ZM61.5689 34.435C61.5819 32.381 59.7619 31.497 57.6169 31.497C56.9799 31.497 56.1869 31.627 55.4329 31.627H54.8609C54.0549 31.627 53.3399 31.627 52.5989 31.497V42.079H55.1339L55.1469 37.399H56.7589C58.1109 37.49 58.5009 38.335 58.9949 39.973C59.2289 40.753 59.5149 41.715 60.2299 42.079H62.6349C61.6599 41.182 61.4649 39.856 60.9839 38.595C60.6849 37.815 60.2819 37.308 59.6839 37.061C60.9189 36.632 61.5559 35.761 61.5689 34.435ZM55.1079 36.684V32.342H56.0959C57.5779 32.342 59.0989 32.368 59.0989 34.487C59.0989 36.515 57.8119 36.684 56.3689 36.684H55.1079ZM71.1843 31.484C70.5343 31.562 69.1303 31.679 68.2853 31.679H64.9703C64.2163 31.679 62.7343 31.562 61.9803 31.484V32.459H65.3343V42.079H67.8043V32.459H71.1843V31.484ZM78.8223 36.229H74.2983V31.51C73.6093 31.692 72.5303 31.679 71.8413 31.51V42.079H74.2983V36.944H78.8223V42.079H81.2793V31.51C80.5903 31.692 79.5113 31.679 78.8223 31.51V36.229ZM84.8886 32.186H86.8256C87.9046 32.186 89.4256 32.173 89.4256 36.749C89.4256 41.546 87.9046 41.351 86.8516 41.351H84.8886V32.186ZM84.6156 31.471C83.9526 31.484 83.2246 31.458 82.4316 31.393V42.079H87.2156C90.8816 42.079 91.9086 39.713 91.9086 36.606C91.9086 33.512 90.8946 31.393 87.2936 31.393C86.6436 31.393 85.9806 31.471 85.2006 31.471H84.6156ZM98.3321 31.51C97.5521 31.666 96.5381 31.666 95.7581 31.51L91.9361 42.079H92.9631L94.0161 39.154H98.5141L99.4631 42.079H102.037L98.3321 31.51ZM96.3821 32.602L98.2801 38.452H94.2631L96.3821 32.602ZM100.323 31.51L103.976 38.348V42.079H106.446V38.218L109.787 31.51C109.475 31.588 109.163 31.588 108.825 31.51L106.03 37.191L103.014 31.51C102.338 31.64 101.142 31.64 100.323 31.51ZM114.202 31.523C113.396 31.692 112.798 31.679 111.992 31.523V39.557H114.202V31.523ZM112.005 41.65C112.005 42.274 112.486 42.755 113.11 42.755C113.734 42.755 114.215 42.274 114.215 41.65C114.215 41.026 113.734 40.545 113.11 40.545C112.486 40.545 112.005 41.026 112.005 41.65Z" fill="#030708"/>
<rect x="13" y="117" width="26.8701" height="26.8701" transform="rotate(-45 13 117)" fill="black"/>
<rect x="13" y="155" width="26.8701" height="26.8701" transform="rotate(-45 13 155)" fill="black"/>
<rect x="13" y="193" width="26.8701" height="26.8701" transform="rotate(-45 13 193)" fill="black"/>
<path d="M77.2 202.7L80.01 207.96V210.83H81.91V207.86L84.48 202.7C84.24 202.76 84 202.76 83.74 202.7L81.59 207.07L79.27 202.7C78.75 202.8 77.83 202.8 77.2 202.7ZM87.1525 210.95C88.7525 210.95 90.4525 210.41 90.4525 207.83C90.4525 205.23 88.7025 204.67 87.1525 204.67C85.6025 204.67 83.8625 205.23 83.8625 207.83C83.8625 210.41 85.5525 210.95 87.1525 210.95ZM87.1525 205.23C88.2825 205.23 88.5425 206.3 88.5425 207.85C88.5425 209.61 88.2825 210.4 87.1525 210.4C86.0225 210.4 85.7625 209.61 85.7625 207.85C85.7625 206.3 86.0225 205.23 87.1525 205.23ZM91.2523 208.73C91.2523 210.27 92.2623 210.92 93.5423 210.92C94.4823 210.92 95.1223 210.53 95.3823 210.01H95.4023V210.83H97.3023V204.78C96.7623 204.86 96.0023 204.86 95.4023 204.78V208.66C95.4023 209.52 94.9323 210.17 94.1723 210.17C93.3023 210.17 93.1523 209.46 93.1523 208.98V204.78C92.6123 204.86 91.8523 204.86 91.2523 204.78V208.73ZM101.548 205.91C101.938 205.99 102.168 206.2 102.368 206.46C102.548 205.92 102.788 205.42 103.108 204.96C102.858 204.81 102.478 204.69 102.028 204.7C101.178 204.72 100.698 205.19 100.428 205.85H100.408V204.79C99.8384 204.88 99.0784 204.88 98.5084 204.79V210.83H100.408V207.08C100.408 206.36 100.938 205.79 101.548 205.91ZM112.952 210.83V202.7C112.752 202.75 112.492 202.75 112.292 202.7V209.72L108.852 202.7C108.282 202.84 107.262 202.84 106.692 202.7V210.83H107.352V203.62L110.802 210.83H112.952ZM115.743 207.81C115.743 206.13 116.133 205.45 117.133 205.45C117.893 205.45 118.573 206.02 118.573 207.01V208.61C118.573 209.6 117.893 210.17 117.133 210.17C116.133 210.17 115.743 209.71 115.743 208.03V207.81ZM113.853 208.08C113.853 210.72 115.423 210.92 116.603 210.92C117.543 210.92 118.333 210.44 118.553 209.9H118.573V210.83H120.473V204.8C119.903 204.89 119.143 204.89 118.573 204.8V205.72H118.553C118.333 205.18 117.543 204.7 116.603 204.7C115.423 204.7 113.853 205.12 113.853 207.76V208.08ZM129.315 204.7C128.425 204.7 127.655 205.11 127.365 206.05C127.035 205.16 126.155 204.7 125.155 204.7C124.215 204.7 123.745 205.08 123.475 205.62H123.455V204.79C122.885 204.88 122.145 204.88 121.575 204.79V210.83H123.455V207.08C123.455 206.09 123.915 205.45 124.675 205.45C125.495 205.45 125.615 206.16 125.615 206.74V210.83H127.515V206.9C127.545 206.04 128.045 205.45 128.745 205.45C129.595 205.45 129.785 206.26 129.785 206.74V210.83H131.685V206.89C131.685 205.45 130.595 204.7 129.315 204.7ZM138.809 207.51C138.809 205.46 137.249 204.66 135.639 204.67C134.089 204.68 132.349 205.27 132.349 207.87C132.349 210.26 134.039 210.95 135.639 210.95C137.009 210.95 138.519 210.55 138.749 209.01C138.119 209.1 137.479 209.11 136.849 209.01C136.749 209.98 136.399 210.4 135.639 210.4C134.529 210.4 134.269 209.64 134.249 208.06H138.809V207.51ZM135.639 205.22C136.679 205.22 136.859 206.24 136.899 207.51H134.259C134.289 206.12 134.639 205.22 135.639 205.22Z" fill="black"/>
</svg>
